<svg xmlns="http://www.w3.org/2000/svg" viewBox="0 0 79 26" width="1em">
  <style>
    .st1{fill-rule:evenodd;clip-rule:evenodd;fill:#fff}
  </style>
  <path d="M39.086 26h39.26V0h-39.26v26z" fill-rule="evenodd" clip-rule="evenodd" fill="#af001e"/>
  <path class="st1" d="M32.04 6.8l-2.52 4.83-2.51-4.83h-3.06l4.07 7.15v5.25h2.84v-5.25l4.06-7.15h-2.88zM8.6 8.9c-.2-.59-.63-1.09-1.27-1.49V7.4c-.65-.4-1.49-.6-2.54-.6H0v12.4h2.8v-4.77h1.37c.87 0 1.61-.09 2.21-.26.6-.17 1.09-.42 1.46-.74.38-.32.65-.71.82-1.19.16-.47.24-1.01.24-1.63 0-.55-.1-1.12-.3-1.71zm-5.8 3.95V8.34l3.86 2.26-3.86 2.25zM22.37 6.8h-2.69l-3.59 9.99h-3.95V6.8H9.3v12.4h8.68l1.03-3h3.89l1.03 3h2.86L22.37 6.8zm-2.67 7.13l1.28-4.03 1.24 4.03H19.7z"/>
  <g>
    <path class="st1" d="M74.278 8.695a.502.502 0 01-.502.502h-5.057v2.625h4.574c.289 0 .522.234.522.522v1.37a.502.502 0 01-.502.502h-4.594v4.498a.502.502 0 01-.502.501H66.46a.521.521 0 01-.522-.52V7.306c0-.278.225-.503.502-.503h7.316c.288 0 .52.234.52.521v1.372-.001zM63.63 19.215h-2.103c-.463 0-.62-.134-.811-.463l-2.296-4.13c-.136-.232-.194-.387-.194-.58 0-.077.02-.193.077-.424l.193-.811c.174-.734.367-.483.927-.714.444-.193.888-.502.888-1.487 0-1.08-.56-1.506-1.718-1.506h-1.834v9.613a.502.502 0 01-.502.502H54.5a.521.521 0 01-.522-.52V7.306c0-.278.225-.503.502-.503h4.305c2.973 0 4.324 1.352 4.324 3.765 0 1.872-1.063 2.721-2.008 3.32l2.819 4.671c.308.483-.02.656-.29.656zM46.993 19.331c-1.37 0-2.778-.096-3.34-.174-.25-.039-.385-.154-.346-.444l.23-1.486c.079-.425.213-.483.716-.444.483.039 1.892.154 2.702.154 1.775 0 2.51-.193 2.51-1.273 0-.734-.502-1.08-1.68-1.39l-1.428-.367c-1.873-.483-2.953-1.66-2.953-3.648 0-2.201 1.543-3.59 4.728-3.59 1.564 0 2.8.096 3.358.174.252.038.387.154.35.443l-.233 1.448c-.078.425-.212.483-.714.444a37.73 37.73 0 00-2.896-.135c-.887 0-1.814.193-1.814 1.197 0 .714.444 1.023 1.409 1.273l1.429.367c2.548.657 3.28 1.91 3.28 3.59 0 2.857-2.238 3.861-5.308 3.861z"/>
  </g>
</svg>
